<svg xmlns="http://www.w3.org/2000/svg" xmlns:xlink="http://www.w3.org/1999/xlink" viewBox="0 0 51 30" width="51" height="30" font-family="Segoe UI, -apple-system, Helvetica Neue, Helvetica, Arial, sans-serif">
<title>C</title>
<g>
<animateTransform attributeName="transform" type="translate" values="0 1;0 -1;0 1" calcMode="spline" keySplines="0.4 0 0.6 1;0.4 0 0.6 1" keyTimes="0;0.5;1" dur="3.4s" begin="-2.10s" repeatCount="indefinite"/>
<rect x="1" y="4" width="49" height="22" rx="11" fill="#6E86A3" fill-opacity="0.08" stroke="#6E86A3" stroke-width="1.3"/>
<g transform="translate(11,8) scale(0.5833)"><path d="M16.5921 9.1962s-.354-3.298-3.627-3.39c-3.2741-.09-4.9552 2.474-4.9552 6.14 0 3.6651 1.858 6.5972 5.0451 6.5972 3.184 0 3.5381-3.665 3.5381-3.665l6.1041.365s.36 3.31-2.196 5.836c-2.552 2.5241-5.6901 2.9371-7.8762 2.9201-2.19-.017-5.2261.034-8.1602-2.97-2.938-3.0101-3.436-5.9302-3.436-8.8002 0-2.8701.556-6.6702 4.047-9.5502C7.444.72 9.849 0 12.254 0c10.0422 0 10.7172 9.2602 10.7172 9.2602z" fill="#6E86A3"/></g>
<text x="30" y="19" font-size="12" font-weight="600" fill="#6E86A3">C</text>
</g>
</svg>
