<svg xmlns="http://www.w3.org/2000/svg" xmlns:xlink="http://www.w3.org/1999/xlink" viewBox="0 0 98 30" width="98" height="30" font-family="Segoe UI, -apple-system, Helvetica Neue, Helvetica, Arial, sans-serif">
<title>Markdown</title>
<g>
<animateTransform attributeName="transform" type="translate" values="0 1;0 -1;0 1" calcMode="spline" keySplines="0.4 0 0.6 1;0.4 0 0.6 1" keyTimes="0;0.5;1" dur="3.4s" begin="-3.90s" repeatCount="indefinite"/>
<rect x="1" y="4" width="96" height="22" rx="11" fill="#6B7C93" fill-opacity="0.08" stroke="#6B7C93" stroke-width="1.3"/>
<g transform="translate(11,8) scale(0.5833)"><path d="M22.27 19.385H1.73A1.73 1.73 0 010 17.655V6.345a1.73 1.73 0 011.73-1.73h20.54A1.73 1.73 0 0124 6.345v11.308a1.73 1.73 0 01-1.73 1.731zM5.769 15.923v-4.5l2.308 2.885 2.307-2.885v4.5h2.308V8.078h-2.308l-2.307 2.885-2.308-2.885H3.46v7.847zM21.232 12h-2.309V8.077h-2.307V12h-2.308l3.461 4.039z" fill="#6B7C93"/></g>
<text x="30" y="19" font-size="12" font-weight="600" fill="#6B7C93">Markdown</text>
</g>
</svg>
